<svg xmlns="http://www.w3.org/2000/svg" viewBox="0 0 512 512" fill="none" role="img" aria-label="Concept 1 The Bridge">
  <path d="M96 360V176C96 156 112 140 132 140H168" stroke="#3D5A73" stroke-width="18" stroke-linecap="round" />
  <path d="M416 360V176C416 156 400 140 380 140H344" stroke="#3D5A73" stroke-width="18" stroke-linecap="round" />
  <rect x="72" y="332" width="72" height="88" rx="10" fill="#0B1F3A" />
  <rect x="368" y="332" width="72" height="88" rx="10" fill="#0B1F3A" />
  <path d="M108 176C108 156 124 140 144 140H368C388 140 404 156 404 176" stroke="#1A2332" stroke-width="10" stroke-linecap="round" />
  <path d="M120 220C176 132 336 132 392 220" stroke="#E85D4C" stroke-width="22" stroke-linecap="round" />
  <path d="M136 248C184 178 328 178 376 248" stroke="#F4F6F9" stroke-width="8" stroke-linecap="round" opacity="0.85" />
  <path d="M120 360H392" stroke="#3D5A73" stroke-width="6" stroke-linecap="round" opacity="0.55" />
  <circle cx="256" cy="220" r="14" fill="#E85D4C" />
</svg>
