<svg xmlns="http://www.w3.org/2000/svg" viewBox="0 0 512 512" fill="none" role="img" aria-label="Vector Core Star">
  <path d="M256 72L296 176H408L320 240L352 352L256 288L160 352L192 240L104 176H216Z" fill="#0B1F3A" />
  <path d="M256 120L280 192H360L304 232L328 304L256 264L184 304L208 232L152 192H232Z" fill="#3D5A73" />
  <path d="M256 168L264 208H304L272 232L280 272L256 256L232 272L240 232L208 208H248Z" fill="#F4F6F9" />
  <path d="M256 192L256 224L240 216L256 192Z" fill="#0B1F3A" />
  <path d="M256 192L272 216L256 224L256 192Z" fill="#0B1F3A" />
</svg>
