<svg xmlns="http://www.w3.org/2000/svg" viewBox="0 0 512 512" fill="none" role="img" aria-label="Vector Core Chevron">
  <path d="M256 88 L312 136 L280 136 L256 112 L232 136 L200 136 Z" fill="#0B1F3A" />
  <path d="M360 160 L336 216 L320 200 L344 160 Z" fill="#3D5A73" />
  <path d="M424 256 L368 280 L368 264 L408 256 L368 248 L368 232 Z" fill="#0B1F3A" />
  <path d="M360 352 L336 296 L320 312 L344 352 Z" fill="#3D5A73" />
  <path d="M256 424 L232 376 L248 376 L256 400 L264 376 L280 376 Z" fill="#0B1F3A" />
  <path d="M152 352 L176 296 L192 312 L168 352 Z" fill="#3D5A73" />
  <path d="M88 256 L144 232 L144 248 L104 256 L144 264 L144 280 Z" fill="#0B1F3A" />
  <path d="M152 160 L176 216 L192 200 L168 160 Z" fill="#3D5A73" />
  <path d="M256 176 L296 200 L296 312 L256 336 L216 312 L216 200 Z" fill="#F4F6F9" />
  <path d="M256 208 L272 220 V292 L256 304 L240 292 V220 Z" fill="#0B1F3A" />
</svg>
