<svg xmlns="http://www.w3.org/2000/svg" viewBox="0 0 512 512" fill="none" role="img" aria-label="Vector Core Diamond">
  <path d="M256 72 L400 256 L256 440 L112 256 Z" fill="#3D5A73" />
  <path d="M256 72 L256 256 L112 256 Z" fill="#0B1F3A" />
  <path d="M256 72 L400 256 L256 256 Z" fill="#1A2332" />
  <path d="M400 256 L256 440 L256 256 Z" fill="#E85D4C" />
  <path d="M256 440 L112 256 L256 256 Z" fill="#1A2332" />
  <path d="M256 160 L328 256 L256 352 L184 256 Z" fill="#F4F6F9" />
  <path d="M256 160 L256 256 L184 256 Z" fill="#0B1F3A" />
  <path d="M256 160 L328 256 L256 256 Z" fill="#3D5A73" />
  <path d="M328 256 L256 352 L256 256 Z" fill="#1A2332" />
  <path d="M256 352 L184 256 L256 256 Z" fill="#0B1F3A" />
  <circle cx="256" cy="256" r="16" fill="#E85D4C" />
  <circle cx="256" cy="256" r="7" fill="#F4F6F9" />
</svg>
